:SAMPLES-PER-SECOND 30
:FULLY-SPECIFIED
:DEGREES
130
root  -38.7741 40.5148 -20.5708 175.059 5.66907 177.679
RightUpLeg  -18.3204 -26.7979 -10.0436
RightLeg  24.6683 -9.36872 -4.88182
RightFoot  -1.54439 0.0958514 -1.21655
RightToes  0.00048216 0.542163 -0.142577
Spine  31.4902 1.33611 -6.91357
Spine1  8.57812 0.517326 -4.19812
HEad  -21.1884 -31.1097 23.0766
LeftShoulder1  8.94553 -14.2206 -43.9339
LeftArm  -25.0651 25.0626 -15.218
LeftForeArm  102.818 -77.4655 -120.225
LeftHand  -0.25398 0.0180481 5.50724
RightShoulder  6.0916 10.2968 38.0921
RightArm  -10.5164 -16.6681 31.3738
RightForeArm  69.0317 76.6378 116.546
RightHand  0.55941 -15.5913 -7.35416
LeftUpLeg  -0.384896 19.2637 9.11116
LeftLeg  15.1438 23.192 -0.572378
LeftFoot  -2.651 0.342157 -4.28821
LeftToes  1.06245e-005 4.65855e-005 -8.18504e-006
131
root  -38.2769 40.4486 -20.7188 174.852 9.48528 176.886
RightUpLeg  -18.196 -28.8303 -12.0329
RightLeg  24.5787 -10.7043 -5.51139
RightFoot  -1.92573 0.0941723 -1.2288
RightToes  0.00048216 0.542163 -0.142577
Spine  29.5817 1.15977 -7.08394
Spine1  8.84123 0.190118 -3.48876
HEad  -21.199 -32.1425 23.2362
LeftShoulder1  8.88405 -14.1659 -43.7581
LeftArm  -23.7001 24.3258 -15.4687
LeftForeArm  102.773 -77.5586 -119.669
LeftHand  -0.25398 0.0180481 5.50724
RightShoulder  6.02268 10.0455 38.3898
RightArm  -12.1175 -18.484 31.2231
RightForeArm  74.31 75.9191 122.009
RightHand  0.62057 -15.4325 -8.13324
LeftUpLeg  1.25066 17.7674 9.7708
LeftLeg  14.6264 27.9602 -0.658247
LeftFoot  -2.07062 0.474782 -5.69319
LeftToes  1.06245e-005 4.65855e-005 -8.18504e-006
132
root  -37.652 40.4104 -20.8919 174.606 12.9385 176.06
RightUpLeg  -17.585 -32.285 -13.3321
RightLeg  23.0785 -13.244 -6.3073
RightFoot  -2.29415 0.126032 -1.80786
RightToes  0.00048216 0.542163 -0.142577
Spine  28.0596 1.03758 -7.70585
Spine1  9.09019 -0.463024 -1.87507
HEad  -21.3293 -32.1895 22.7585
LeftShoulder1  8.89568 -14.0931 -44.0095
LeftArm  -22.5008 23.411 -15.5031
LeftForeArm  102.476 -77.6065 -119.298
LeftHand  -0.25398 0.0180481 5.50724
RightShoulder  6.0052 9.96038 38.5353
RightArm  -13.5826 -19.9369 31.0064
RightForeArm  78.1531 75.2921 125.837
RightHand  0.624236 -15.0765 -8.442
LeftUpLeg  3.19739 15.7839 10.2774
LeftLeg  13.3545 33.0987 -0.998912
LeftFoot  -1.34639 0.641864 -7.24959
LeftToes  1.06245e-005 4.65855e-005 -8.18504e-006
133
root  -36.8962 40.3865 -21.1253 174.718 16.3714 175.653
RightUpLeg  -16.7496 -35.6968 -13.2583
RightLeg  20.6313 -16.3034 -6.88591
RightFoot  -3.20497 0.180441 -2.82361
RightToes  0.00048216 0.542163 -0.142577
Spine  26.3323 0.688489 -7.87598
Spine1  9.40316 -1.18107 -0.364767
HEad  -21.4828 -31.6189 22.134
LeftShoulder1  8.89982 -14.0197 -44.2249
LeftArm  -21.7792 22.6115 -15.7489
LeftForeArm  101.51 -77.6911 -118.493
LeftHand  -0.25398 0.0180481 5.50724
RightShoulder  6.01301 9.92016 38.7193
RightArm  -14.3868 -21.0286 30.544
RightForeArm  80.3754 74.7605 128.52
RightHand  0.612099 -14.7232 -8.58874
LeftUpLeg  5.12669 13.6611 10.8945
LeftLeg  11.287 38.0603 -1.55408
LeftFoot  -0.462381 0.788321 -8.24331
LeftToes  1.06245e-005 4.65855e-005 -8.18504e-006
134
root  -35.9876 40.3493 -21.4412 175.439 20.2393 175.906
RightUpLeg  -15.9185 -37.7274 -11.7741
RightLeg  17.9522 -18.0879 -6.44833
RightFoot  -3.53771 0.121698 -2.15717
RightToes  0.00048216 0.542163 -0.142577
Spine  24.1288 0.210645 -7.10167
Spine1  9.73837 -1.67745 0.768771
HEad  -21.4845 -30.8515 21.2128
LeftShoulder1  8.86647 -13.9729 -44.1747
LeftArm  -21.436 22.2056 -16.3063
LeftForeArm  99.7665 -77.8782 -116.762
LeftHand  -0.25398 0.0180481 5.50724
RightShoulder  5.96096 9.81687 38.6773
RightArm  -14.3794 -22.052 30.138
RightForeArm  81.5453 74.2185 130.828
RightHand  0.655341 -14.3802 -9.42462
LeftUpLeg  7.24769 12.9071 12.1469
LeftLeg  8.3437 41.7848 -2.47311
LeftFoot  1.19457 1.04613 -9.53859
LeftToes  1.06245e-005 4.65855e-005 -8.18504e-006
135
root  -34.9252 40.2892 -21.8489 176.905 24.5696 176.851
RightUpLeg  -15.2437 -37.8907 -9.63692
RightLeg  15.8544 -18.0223 -4.51715
RightFoot  -2.03901 -0.0507708 0.397562
RightToes  0.00048216 0.542163 -0.142577
Spine  21.4566 -0.328988 -5.35846
Spine1  9.91876 -1.98145 1.63798
HEad  -20.8708 -29.8033 19.3767
LeftShoulder1  8.81471 -13.9731 -43.9031
LeftArm  -21.3955 22.7061 -17.1168
LeftForeArm  98.8156 -78.019 -115.509
LeftHand  -0.25398 0.0180481 5.50724
RightShoulder  5.89266 9.74547 38.415
RightArm  -13.6646 -23.2453 29.581
RightForeArm  82.228 73.5727 133.221
RightHand  0.763879 -14.216 -10.9382
LeftUpLeg  9.46473 13.1783 14.1886
LeftLeg  5.44247 45.4052 -3.57816
LeftFoot  2.58525 1.40833 -11.6835
LeftToes  1.06245e-005 4.65855e-005 -8.18504e-006
136
root  -33.7658 40.2205 -22.3303 178.737 28.9636 178.281
RightUpLeg  -15.2566 -38.4923 -6.83395
RightLeg  14.8622 -15.0951 -2.04057
RightFoot  0.23438 -0.192985 1.96935
RightToes  0.00048216 0.542163 -0.142577
Spine  18.8974 -1.05323 -2.90318
Spine1  9.88437 -2.34831 2.01803
HEad  -19.4887 -28.0983 16.8116
LeftShoulder1  8.7344 -13.9959 -43.4207
LeftArm  -21.7263 24.2898 -18.1992
LeftForeArm  100.325 -77.9402 -116.526
LeftHand  -0.25398 0.0180481 5.50724
RightShoulder  5.91166 9.82266 38.3042
RightArm  -12.4243 -24.2906 28.3523
RightForeArm  82.1642 72.8468 135.549
RightHand  0.912422 -14.4544 -12.4836
LeftUpLeg  10.9658 13.6435 16.3508
LeftLeg  5.13456 48.4994 -3.02488
LeftFoot  0.8989 1.29991 -12.0782
LeftToes  1.06245e-005 4.65855e-005 -8.18504e-006
137
root  -32.6082 40.1727 -22.7966 -179.995 33.3871 179.798
RightUpLeg  -15.8377 -39.9282 -3.39628
RightLeg  15.3034 -10.0007 -0.71141
RightFoot  0.96883 -0.0595186 0.585319
RightToes  0.00048216 0.542163 -0.142577
Spine  17.5795 -1.79113 -0.409244
Spine1  9.79024 -2.77086 2.0346
HEad  -18.1264 -25.7403 14.7313
LeftShoulder1  8.60606 -13.9587 -42.8406
LeftArm  -22.2619 26.0577 -19.3657
LeftForeArm  103.22 -77.689 -119.023
LeftHand  -0.25398 0.0180481 5.50724
RightShoulder  5.99158 9.98346 38.3654
RightArm  -11.1039 -24.5664 26.8077
RightForeArm  81.0195 72.1725 137.407
RightHand  1.06428 -14.6241 -14.1036
LeftUpLeg  11.3876 14.0816 17.7397
LeftLeg  8.86074 47.6668 0.625134
LeftFoot  -4.35752 0.552023 -8.20005
LeftToes  1.06245e-005 4.65855e-005 -8.18504e-006
138
root  -31.5027 40.1234 -23.1171 -179.663 38.3548 -178.933
RightUpLeg  -15.9874 -37.6639 -0.55947
RightLeg  16.9788 -7.49838 -1.12207
RightFoot  -0.506425 0.19207 -2.08372
RightToes  0.00048216 0.542163 -0.142577
Spine  18.0391 -1.95235 1.14301
Spine1  9.72644 -2.81655 2.47556
HEad  -17.6394 -23.3256 13.95
LeftShoulder1  8.47001 -13.8279 -42.4583
LeftArm  -22.4431 26.6154 -20.0528
LeftForeArm  104.265 -77.5734 -120.022
LeftHand  -0.25398 0.0180481 5.50724
RightShoulder  6.02972 10.0901 38.3001
RightArm  -10.4052 -24.0701 25.9574
RightForeArm  79.6233 71.6455 138.714
RightHand  1.1346 -13.9104 -16.1254
LeftUpLeg  11.0326 17.4878 18.4848
LeftLeg  14.5156 37.4396 5.06893
LeftFoot  -10.0941 0.0803266 -2.74031
LeftToes  1.06245e-005 4.65855e-005 -8.18504e-006
139
root  -30.4675 40.0785 -23.4258 179.659 42.262 -177.646
RightUpLeg  -13.4211 -32.7594 -0.0161402
RightLeg  18.4947 -8.61818 -1.77616
RightFoot  -2.73303 0.238313 -3.37024
RightToes  0.00048216 0.542163 -0.142577
Spine  19.6461 -2.40546 2.73213
Spine1  10.1462 -3.03266 2.90013
HEad  -17.6097 -21.4468 13.8699
LeftShoulder1  8.42893 -13.727 -42.5026
LeftArm  -21.8588 25.5506 -19.8616
LeftForeArm  101.486 -77.8374 -117.555
LeftHand  -0.25398 0.0180481 5.50724
RightShoulder  5.9868 10.0829 38.0189
RightArm  -10.6428 -23.5692 26.0997
RightForeArm  79.1938 71.2636 139.664
RightHand  1.07978 -12.6164 -17.9459
LeftUpLeg  9.92564 23.9129 18.9114
LeftLeg  19.6657 17.3011 6.70418
LeftFoot  -13.2636 0.0579713 -0.741821
LeftToes  1.06245e-005 4.65855e-005 -8.18504e-006
